<?xml version="1.0" standalone="no"?>
<!DOCTYPE svg PUBLIC "-//W3C//DTD SVG 20010904//EN"
 "http://www.w3.org/TR/2001/REC-SVG-20010904/DTD/svg10.dtd">
<svg version="1.0" xmlns="http://www.w3.org/2000/svg"
 width="100.000000pt" height="100.000000pt" viewBox="0 0 100.000000 100.000000"
 preserveAspectRatio="xMidYMid meet">
<metadata>
Created by potrace 1.14, written by Peter Selinger 2001-2017
</metadata>
<g transform="translate(0.000000,100.000000) scale(0.100000,-0.100000)"
fill="#000000" stroke="none">
<path d="M466 879 c-25 -28 -46 -55 -46 -61 0 -5 -19 6 -42 25 -62 50 -106 71
-122 57 -8 -5 -26 -38 -42 -73 -41 -87 -41 -188 -1 -267 25 -51 61 -97 99
-128 13 -11 24 -11 57 -1 22 7 38 16 35 20 -3 5 12 9 33 9 21 0 51 7 67 15 23
12 27 12 23 1 -4 -10 4 -15 25 -18 44 -7 61 25 66 129 3 62 2 84 -7 79 -6 -4
-11 -16 -11 -26 0 -10 -4 -22 -10 -25 -6 -4 -10 5 -10 21 0 23 -2 25 -15 14
-13 -11 -14 -10 -8 6 6 17 5 17 -10 5 -24 -19 -22 4 3 29 19 19 19 20 -13 28
l-32 9 27 11 c15 6 36 9 45 5 14 -5 12 0 -6 20 -30 33 -9 36 23 3 23 -22 25
-23 40 -5 9 11 26 19 38 19 21 0 21 0 2 -14 -18 -14 -18 -15 9 -21 28 -7 38
-35 12 -35 -8 0 -15 -4 -15 -10 0 -5 4 -10 9 -10 5 0 11 -7 14 -15 5 -11 1
-12 -19 -5 -34 13 -40 12 -26 -2 7 -7 12 -19 12 -28 -1 -12 -4 -11 -18 5 -16
20 -17 17 -18 -82 -1 -77 2 -103 12 -103 7 0 15 6 18 13 3 6 3 1 0 -13 -4 -21
0 -27 24 -36 26 -10 32 -8 64 25 77 80 118 176 112 261 -4 50 -39 147 -65 182
-17 22 -18 22 -53 6 -19 -10 -53 -34 -76 -54 -22 -20 -40 -32 -40 -27 0 15
-91 113 -105 113 -7 0 -34 -23 -59 -51z m29 -327 c-3 -7 -1 -11 4 -8 13 8 20
-42 7 -53 -6 -5 -26 -12 -44 -16 l-34 -7 16 31 c9 16 16 49 16 73 l0 43 20
-25 c11 -14 18 -31 15 -38z m231 -28 c-6 -6 -15 -10 -19 -7 -5 3 -15 -3 -22
-13 -13 -18 -14 -17 -9 6 4 17 3 21 -4 12 -7 -11 -11 -10 -16 4 -4 10 -3 20 3
22 5 2 7 11 4 20 -6 15 -5 16 12 2 17 -14 18 -14 5 10 -11 21 -8 20 22 -9 27
-26 33 -37 24 -47z"/>
<path d="M392 417 l-53 -9 32 -24 c18 -13 36 -24 41 -24 8 0 42 60 36 64 -2 1
-27 -2 -56 -7z"/>
<path d="M470 422 c0 -4 12 -20 26 -35 l26 -29 29 28 c16 15 29 31 29 36 0 4
-25 8 -55 8 -30 0 -55 -3 -55 -8z"/>
<path d="M600 411 c0 -5 8 -18 18 -30 l17 -21 35 23 35 22 -30 6 c-46 10 -75
10 -75 0z"/>
<path d="M180 260 c0 -40 4 -70 10 -70 11 0 12 3 12 65 0 68 -1 75 -12 75 -6
0 -10 -30 -10 -70z"/>
<path d="M600 320 c0 -5 7 -10 16 -10 8 0 12 5 9 10 -3 6 -10 10 -16 10 -5 0
-9 -4 -9 -10z"/>
<path d="M248 292 c-14 -3 -18 -14 -18 -53 0 -60 18 -65 22 -6 2 23 7 41 13
39 5 -1 8 -21 6 -43 -2 -31 1 -40 11 -37 7 3 14 19 14 36 2 48 3 52 14 52 6 0
10 -20 10 -45 0 -25 5 -45 11 -45 6 0 9 20 7 52 l-3 52 -35 1 c-19 1 -43 -1
-52 -3z"/>
<path d="M384 293 c-20 -4 -21 -10 -20 -65 1 -38 6 -63 14 -66 7 -2 12 5 12
17 0 13 5 19 14 15 8 -3 18 2 23 13 15 32 5 96 -15 92 -4 -1 -17 -4 -28 -6z
m26 -48 c0 -19 -4 -35 -9 -35 -12 0 -19 29 -13 53 7 30 22 18 22 -18z"/>
<path d="M462 288 c-17 -17 -15 -73 3 -88 20 -16 49 -9 54 15 3 17 1 17 -12 6
-9 -7 -21 -10 -27 -6 -15 9 -2 25 21 25 12 0 19 7 19 18 0 20 -18 42 -35 42
-6 0 -16 -5 -23 -12z m38 -16 c0 -13 -12 -22 -22 -16 -10 6 -1 24 13 24 5 0 9
-4 9 -8z"/>
<path d="M577 292 c-4 -6 -14 -9 -22 -5 -12 4 -15 -5 -15 -47 0 -37 4 -50 13
-47 6 2 12 18 12 36 0 17 6 36 14 40 7 5 11 15 9 22 -3 9 -6 10 -11 1z"/>
<path d="M662 291 c-14 -9 -19 -71 -7 -90 10 -17 43 -13 54 8 12 22 5 73 -12
83 -15 10 -19 10 -35 -1z m28 -46 c0 -19 -4 -35 -10 -35 -5 0 -10 16 -10 35 0
19 5 35 10 35 6 0 10 -16 10 -35z"/>
<path d="M787 293 c-4 -3 -7 -24 -7 -45 0 -27 -4 -38 -12 -35 -8 2 -13 19 -12
40 1 24 -4 37 -12 37 -8 0 -13 -13 -12 -32 0 -56 6 -67 38 -66 29 1 30 2 30
55 0 54 -1 58 -13 46z"/>
<path d="M832 288 c-17 -17 -15 -27 11 -48 12 -10 18 -22 14 -26 -4 -5 -12 -2
-17 6 -11 18 -25 6 -17 -15 8 -19 41 -20 57 0 9 11 7 19 -15 41 -27 27 -27 47
0 24 12 -10 15 -10 15 3 0 8 -7 18 -16 21 -20 8 -18 8 -32 -6z"/>
<path d="M602 243 c4 -64 24 -67 24 -3 0 35 -5 50 -14 50 -9 0 -12 -13 -10
-47z"/>
<path d="M550 151 c0 -11 4 -22 9 -25 4 -3 6 6 3 19 -5 30 -12 33 -12 6z"/>
<path d="M582 158 c-8 -8 -9 -15 -1 -25 13 -15 29 -17 29 -3 0 6 -4 9 -9 8 -5
-2 -8 2 -7 7 0 6 5 9 9 7 5 -1 6 2 2 8 -8 13 -8 13 -23 -2z"/>
<path d="M695 161 c-3 -5 -1 -12 5 -16 6 -4 7 -11 4 -17 -4 -6 -2 -8 4 -5 5 4
8 16 5 27 -6 22 -9 24 -18 11z"/>
<path d="M754 155 c-7 -17 3 -35 19 -34 9 0 9 2 0 6 -7 2 -13 11 -13 19 0 9 5
12 12 8 7 -4 8 -3 4 4 -10 16 -15 15 -22 -3z"/>
<path d="M655 150 c-3 -5 -1 -10 4 -10 6 0 11 5 11 10 0 6 -2 10 -4 10 -3 0
-8 -4 -11 -10z"/>
<path d="M798 153 c7 -3 16 -2 19 1 4 3 -2 6 -13 5 -11 0 -14 -3 -6 -6z"/>
<path d="M831 144 c0 -11 3 -14 6 -6 3 7 2 16 -1 19 -3 4 -6 -2 -5 -13z"/>
<path d="M856 145 c4 -8 8 -15 10 -15 2 0 4 7 4 15 0 8 -4 15 -10 15 -5 0 -7
-7 -4 -15z"/>
<path d="M881 144 c0 -11 3 -14 6 -6 3 7 2 16 -1 19 -3 4 -6 -2 -5 -13z"/>
<path d="M796 128 c3 -5 10 -6 15 -3 13 9 11 12 -6 12 -8 0 -12 -4 -9 -9z"/>
<path d="M638 123 c7 -3 16 -2 19 1 4 3 -2 6 -13 5 -11 0 -14 -3 -6 -6z"/>
</g>
</svg>
